<svg id="Layer_1" data-name="Layer 1" xmlns="http://www.w3.org/2000/svg" viewBox="0 0 318.17 70.69"><defs><style>.cls-1{fill:#fff;stroke:#fff;stroke-miterlimit:10;}</style></defs><title>minervaheader_qas</title><path class="cls-1" d="M46.44,75.31,23.75,16h-.37Q24,23,24,32.74V75.31H16.85V8.44H28.56L49.73,63.6h.37L71.46,8.44H83V75.31H75.3V32.23q0-7.41.64-16.1h-.37L52.71,75.31Z" transform="translate(-16.35 -6.05)"/><path class="cls-1" d="M92.71,11.6A5,5,0,0,1,94,7.78a4.74,4.74,0,0,1,6.36,0,5,5,0,0,1,1.33,3.8,5,5,0,0,1-1.33,3.82,4.43,4.43,0,0,1-3.16,1.26A4.38,4.38,0,0,1,94,15.4,5.13,5.13,0,0,1,92.71,11.6Zm8.23,63.72H93.35V25.18h7.59Z" transform="translate(-16.35 -6.05)"/><path class="cls-1" d="M146.25,75.31V42.88q0-6.13-2.79-9.15t-8.74-3q-7.87,0-11.53,4.25t-3.65,14V75.3h-7.6V25.18h6.18L119.35,32h.37a15.5,15.5,0,0,1,6.54-5.74,21.25,21.25,0,0,1,9.38-2q9.06,0,13.63,4.37t4.57,14v32.7Z" transform="translate(-16.35 -6.05)"/><path class="cls-1" d="M186,76.23q-11.12,0-17.54-6.77T162,50.66q0-12.12,6-19.26t16-7.14q9.42,0,14.91,6.2t5.49,16.35v4.8H169.92q.23,8.83,4.46,13.4t11.92,4.57a40.38,40.38,0,0,0,16-3.38V73a40.17,40.17,0,0,1-7.62,2.49A42.82,42.82,0,0,1,186,76.23ZM184,30.63a12.4,12.4,0,0,0-9.63,3.93q-3.59,3.93-4.23,10.89h26.21q0-7.18-3.2-11T184,30.63Z" transform="translate(-16.35 -6.05)"/><path class="cls-1" d="M235.6,24.27a29.73,29.73,0,0,1,6,.55l-1.05,7a25.9,25.9,0,0,0-5.49-.69,13.36,13.36,0,0,0-10.41,4.94,18,18,0,0,0-4.32,12.3v26.9h-7.59V25.18H219l.87,9.29h.37A22,22,0,0,1,227,26.92,15.14,15.14,0,0,1,235.6,24.27Z" transform="translate(-16.35 -6.05)"/><path class="cls-1" d="M266,75.31,247,25.18h8.14l10.79,29.73a141,141,0,0,1,4.3,13.54h.37a102,102,0,0,1,3.18-10q2.68-7.62,12-33.23h8.14l-19,50.13Z" transform="translate(-16.35 -6.05)"/><path class="cls-1" d="M328.35,75.31l-1.51-7.14h-.37A21.09,21.09,0,0,1,319,74.56a22.79,22.79,0,0,1-9.31,1.67q-7.46,0-11.69-3.84t-4.23-10.93q0-15.19,24.29-15.92l8.51-.27V42.15q0-5.9-2.54-8.71T316,30.63q-6.27,0-14.18,3.84l-2.33-5.81a35.7,35.7,0,0,1,8.12-3.16,35.19,35.19,0,0,1,8.85-1.14q9,0,13.29,4T334,41.12V75.31ZM311.19,70q7.09,0,11.14-3.89t4-10.89V50.66l-7.59.32q-9.06.32-13.06,2.81t-4,7.75a7.82,7.82,0,0,0,2.49,6.27A10.34,10.34,0,0,0,311.19,70Z" transform="translate(-16.35 -6.05)"/></svg>